{"title":"Underworld Awakening 2012 R5 XVID 5.1.AC3-TRiNiTY","uid":7035140,"size":1704773139,"categoryP":"video","categoryS":"movies","magnet":"?xt=urn:btih:5c1017cc5e1a1f6367855aaa4987d90c3bc8426e&amp;dn=Underworld+Awakening+2012+R5+XVID+5.1.AC3-TRiNiTY&amp;tr=udp%3A%2F%2Ftracker.openbittorrent.com%3A80&amp;tr=udp%3A%2F%2Fopen.demonii.com%3A1337&amp;tr=udp%3A%2F%2Ftracker.coppersurfer.tk%3A6969&amp;tr=udp%3A%2F%2Fexodus.desync.com%3A6969","seeders":0,"leechers":0,"uploader":"TvTeam","files":5,"time":1329348396,"description":". \n &lt;a href=&quot;\nhttp://www.torrenting.com&quot; rel=&quot;nofollow&quot; target=&quot;_NEW&quot;&gt;\nhttp://www.torrenting.com&lt;/a&gt;          :     Once &amp; For all ;)\n\n\n               www . Torrenting . Com \n\n(((((((((((((= Enjoy No RAR releases =))))))))))))))))))))\n\n\n...................................NFO:....................................\n\n.\nooooooooooooo ooooooooo.    o8o  ooooo      ooo  o8o  ooooooooooooo oooooo   oooo \n8'   888   `8 `888   `Y88.  `&quot;'  `888b.     `8'  `&quot;'  8'   888   `8  `888.   .8'  \n     888       888   .d88' oooo   8 `88b.    8  oooo       888        `888. .8'   \n     888       888ooo88P'  `888   8   `88b.  8  `888       888         `888.8'    \n     888       888`88b.     888   8     `88b.8   888       888          `888'     \n     888       888  `88b.   888   8       `888   888       888           888      \n    o888o     o888o  o888o o888o o8o        `8  o888o     o888o         o888o  \n                                     ___________                    ______\n                              ______ ___  /__  /____  _____________ __  /\n                              _  __ `/_  /__  /__  / / /  ___/  __ `/  __/\n                              / /_/ /_  / _  / _  /_/ // /__ / /_/ // /\n                              \\__,_/ /_/  /_/  _\\__, / \\___/ \\__,_/ \\__/ \n                                               /____/\n\n\n\n\n\n\n\n\nEnCoDer:Allycat\n\n\n\nGeneral\nComplete name                    : Underworld Awakening 2012 R5 XVID 5.1 AC3-TRiNiTY.avi\nFormat                           : AVI\nFormat/Info                      : Audio Video Interleave\nFile size                        : 1.55 GiB\nDuration                         : 1h 25mn\nOverall bit rate                 : 2 607 Kbps\nWriting library                  : VirtualDub build 30091/release\n\nVideo\nID                               : 0\nFormat                           : MPEG-4 Visual\nFormat profile                   : Advanced Simple@L5\nFormat settings, BVOP            : 1\nFormat settings, QPel            : No\nFormat settings, GMC             : No warppoints\nFormat settings, Matrix          : Default (H.263)\nMuxing mode                      : Packed bitstream\nCodec ID                         : XVID\nCodec ID/Hint                    : XviD\nDuration                         : 1h 25mn\nBit rate                         : 2 149 Kbps\nWidth                            : 720 pixels\nHeight                           : 400 pixels\nDisplay aspect ratio             : 16:9\nFrame rate                       : 25.000 fps\nColor space                      : YUV\nChroma subsampling               : 4:2:0\nBit depth                        : 8 bits\nScan type                        : Progressive\nCompression mode                 : Lossy\nBits/(Pixel*Frame)               : 0.299\nStream size                      : 1.28 GiB (82%)\nWriting library                  : XviD 1.2.1 (UTC 2008-12-04)\n\nAudio\nID                               : 1\nFormat                           : AC-3\nFormat/Info                      : Audio Coding 3\nMode extension                   : CM (complete main)\nCodec ID                         : 2000\nDuration                         : 1h 25mn\nBit rate mode                    : Constant\nBit rate                         : 448 Kbps\nChannel(s)                       : 6 channels\nChannel positions                : Front: L C R, Side: L R, LFE\nSampling rate                    : 48.0 KHz\nBit depth                        : 16 bits\nCompression mode                 : Lossy\nStream size                      : 273 MiB (17%)\nAlignment                        : Aligned on interleaves\nInterleave, duration             : 40 ms (1.00 video frame)\nInterleave, preload duration     : 512 ms","torrent":{"xt":"urn:btih:5c1017cc5e1a1f6367855aaa4987d90c3bc8426e","amp;dn":"Underworld+Awakening+2012+R5+XVID+5.1.AC3-TRiNiTY","amp;tr":["udp%3A%2F%2Ftracker.openbittorrent.com%3A80","udp%3A%2F%2Fopen.demonii.com%3A1337","udp%3A%2F%2Ftracker.coppersurfer.tk%3A6969","udp%3A%2F%2Fexodus.desync.com%3A6969"],"infoHash":"5c1017cc5e1a1f6367855aaa4987d90c3bc8426e","infoHashBuffer":{"type":"Buffer","data":[92,16,23,204,94,26,31,99,103,133,90,170,73,135,217,12,59,200,66,110]},"announce":[],"urlList":[]}}